# xmcd
#
# Track frame offsets:
# 150
# 33742
# 54435
# 69139
# 87727
# 103608
# 155066
# 172662
# 191626
# 208736
# 224010
#
# Disc length: 3681 seconds
#
#
# Revision: 0
# Processed by: cddbd v1.5.2PL0 Copyright (c) Steve Scherf et al.
# Submitted via: FreeRIP 2.951 
#
DISCID=9f0e5f0b
DTITLE=Caça Níqueis - Live Níqueis!
DYEAR=1900
DGENRE=Rock
TTITLE0=Grinnin' In Your Face
TTITLE1=Mother Earth
TTITLE2=Low Down
TTITLE3=Mary Had a Little Lamb
TTITLE4=Susie Q
TTITLE5=Sweet Home Alabama
TTITLE6=Proud Mary
TTITLE7=120 - 100 - 160
TTITLE8=Abutres
TTITLE9=Tequila Sex Rock
TTITLE10=Sharp Dressed Man/Jumpin Jack Flash
EXTD=
EXTT0=
EXTT1=
EXTT2=
EXTT3=
EXTT4=
EXTT5=
EXTT6=
EXTT7=
EXTT8=
EXTT9=
EXTT10=
PLAYORDER=
